<svg width="294" height="398" viewBox="0 0 294 398" fill="none" xmlns="http://www.w3.org/2000/svg">
<g opacity="0.2">
<path d="M128.651 208.05C138.593 199.22 142.286 185.258 138.034 172.575L150.672 165.278C159.546 175.282 173.472 179.062 186.095 174.892L203.454 204.958C189.76 217.131 188.557 238.192 200.768 251.998C203.655 255.263 207.148 257.932 211.051 259.855L199.819 317.613C181.317 319.352 167.807 335.816 169.643 354.389C171.478 372.961 187.966 386.607 206.469 384.869C224.972 383.131 238.482 366.666 236.646 348.094C235.309 334.572 226.034 323.124 213.102 319.034L223.962 263.179C241.456 264.222 256.617 251.326 258.435 233.855L291.218 233.946C291.894 237.442 293.132 240.808 294.88 243.912C304.098 259.878 324.431 265.397 340.295 256.238C356.158 247.079 361.545 226.711 352.327 210.745C350.497 207.662 348.178 204.897 345.463 202.558L361.761 174.138C377.933 181.384 396.853 174.574 404.643 158.7L450.784 171.224C449.712 189.648 463.736 205.539 482.107 206.717C500.478 207.896 516.24 193.916 517.312 175.492C518.384 157.067 504.36 141.176 485.989 139.998C472.641 139.142 460.12 146.371 454.187 158.359L408.046 145.836C409.137 127.508 395.207 111.682 376.932 110.485C372.612 110.202 368.284 110.77 364.191 112.157L346.832 82.0915C360.576 70.0854 361.952 49.1208 349.908 35.2664C347.117 32.0558 343.74 29.4089 339.96 27.4695L354.773 -13.2071C361.395 -12.682 368.009 -14.1718 373.753 -17.481C389.753 -26.6154 395.269 -47.0748 386.075 -63.1776C376.88 -79.2804 356.456 -84.9293 340.456 -75.7949C324.456 -66.6605 318.939 -46.2011 328.134 -30.0983C331.366 -24.4373 336.166 -19.8336 341.947 -16.8492L327.134 23.8274C311.592 22.6146 297.384 32.4731 293.064 47.4682L255.843 47.3715C255.18 43.8356 253.943 40.43 252.182 37.2893C242.947 21.3333 222.609 15.837 206.755 25.0134C201.036 28.3238 196.443 33.278 193.564 39.2399L154.126 32.2905C153.625 27.7047 152.174 23.2694 149.864 19.2709C140.713 3.1059 120.272 -2.62901 104.21 6.46227C88.1476 15.5536 82.5453 36.0287 91.6972 52.1937C100.849 68.3587 121.29 74.0936 137.352 65.0023C144.805 60.7841 150.343 53.8469 152.824 45.6237L190.318 52.1919C189.713 62.2462 193.867 72.0257 201.527 78.5846L182.972 110.883C165.181 106.548 147.336 117.483 143.114 135.308C141.673 141.395 141.978 147.776 143.996 153.715L131.358 161.012C119.153 147.2 98.1538 145.867 84.4543 158.033C70.7548 170.2 69.5432 191.261 81.7476 205.072C93.9519 218.884 114.952 220.218 128.651 208.05ZM213.368 368.066C203.85 373.561 191.651 370.25 186.12 360.67C180.589 351.09 183.821 338.87 193.339 333.374C202.858 327.879 215.057 331.19 220.588 340.77C226.119 350.35 222.886 362.571 213.368 368.066ZM473.898 155.975C483.416 150.48 495.616 153.791 501.146 163.371C506.677 172.951 503.445 185.171 493.927 190.667C484.409 196.162 472.209 192.851 466.678 183.271C461.147 173.691 464.38 161.471 473.898 155.975ZM347.047 -63.7361C356.566 -69.2314 368.765 -65.9204 374.296 -56.3405C379.827 -46.7607 376.595 -34.5401 367.076 -29.0448C357.558 -23.5494 345.359 -26.8605 339.828 -36.4403C334.297 -46.0202 337.529 -58.2407 347.047 -63.7361ZM131.155 53.2C121.637 58.6954 109.438 55.3844 103.907 45.8045C98.3759 36.2247 101.608 24.0041 111.126 18.5088C120.645 13.0134 132.844 16.3245 138.375 25.9043C143.906 35.4842 140.673 47.7051 131.155 53.2ZM235.57 247.319C226.052 252.814 213.853 249.503 208.322 239.923C202.791 230.343 206.023 218.123 215.541 212.628C225.06 207.132 237.259 210.443 242.79 220.023C248.321 229.603 245.088 241.824 235.57 247.319ZM333.619 244.675C324.1 250.17 311.901 246.859 306.37 237.279C300.839 227.699 304.071 215.479 313.59 209.984C323.108 204.488 335.307 207.799 340.838 217.379C346.369 226.959 343.136 239.18 333.619 244.675ZM392.152 133.789C397.683 143.369 394.451 155.589 384.932 161.085C375.414 166.58 363.215 163.269 357.684 153.689C352.153 144.109 355.385 131.889 364.903 126.393C374.422 120.898 386.621 124.209 392.152 133.789ZM314.831 39.6651C324.349 34.1697 336.549 37.4807 342.08 47.0606C347.61 56.6405 344.378 68.861 334.86 74.3563C325.342 79.8517 313.142 76.5407 307.611 66.9608C302.08 57.381 305.313 45.1604 314.831 39.6651ZM213.445 36.5271C222.963 31.0318 235.162 34.3428 240.693 43.9227C246.224 53.5025 242.992 65.7231 233.474 71.2184C223.955 76.7138 211.756 73.4027 206.225 63.8229C200.694 54.243 203.926 42.0225 213.445 36.5271ZM204.207 126.661C201.917 122.702 198.835 119.257 195.157 116.545L213.07 85.311C230.201 91.2872 248.839 82.2265 254.7 65.0738C255.193 63.632 255.584 62.1579 255.872 60.6611L291.884 60.7614C294.004 79.0155 310.464 92.1717 328.648 90.1462C330.919 89.8933 333.156 89.4057 335.323 88.6903L352.721 118.825C339.112 130.795 337.813 151.621 349.821 165.341C350.144 165.711 350.476 166.073 350.815 166.428L333.932 195.865C316.785 189.926 298.163 199.03 292.339 216.2C291.851 217.638 291.464 219.108 291.18 220.601L257.273 220.511C256.556 218.03 255.552 215.64 254.279 213.39C246.334 199.667 229.905 193.375 214.944 198.325L197.585 168.259C209.352 157.777 212.118 140.403 204.207 126.661ZM165.469 125.899C174.987 120.404 187.186 123.715 192.717 133.295C198.248 142.875 195.016 155.095 185.498 160.591C175.98 166.086 163.78 162.775 158.249 153.195C152.718 143.615 155.951 131.395 165.469 125.899ZM96.5324 165.7C106.051 160.204 118.25 163.515 123.781 173.095C129.312 182.675 126.08 194.896 116.561 200.391C107.043 205.886 94.8438 202.575 89.3129 192.995C83.7819 183.416 87.0142 171.195 96.5324 165.7Z" fill="#008FBC"/>
</g>
</svg>
