<svg width="393" height="388" viewBox="0 0 393 388" fill="none" xmlns="http://www.w3.org/2000/svg">
<g opacity="0.2">
<path d="M246.885 189.466C237.449 199.494 234.933 214.235 240.493 226.922L228.134 235.617C218.056 226.122 203.344 223.513 190.711 228.982L170.025 199.582C183.021 185.759 182.311 163.927 168.439 150.819C165.159 147.719 161.31 145.291 157.106 143.669L163.342 83.0612C182.263 79.5548 194.672 61.3237 191.059 42.3395C187.446 23.3552 169.178 10.8087 150.257 14.3143C131.335 17.82 118.927 36.0518 122.54 55.036C125.17 68.8579 135.796 79.8058 149.512 82.826L143.484 141.437C125.345 141.981 110.903 156.684 110.646 174.871L76.8282 177.812C75.8065 174.269 74.2186 170.913 72.1281 167.873C61.1431 152.261 39.6621 148.452 24.15 159.366C8.6379 170.281 4.96786 191.786 15.9529 207.398C18.1263 210.408 20.7736 213.046 23.7897 215.206L9.61283 246.026C-7.73669 240.05 -26.6182 248.825 -33.1824 265.917L-81.9282 257.274C-82.5283 238.174 -98.4632 223.083 -117.519 223.569C-136.575 224.055 -151.535 239.932 -150.935 259.033C-150.335 278.134 -134.4 293.224 -115.345 292.738C-101.499 292.385 -89.255 283.77 -84.2468 270.857L-35.501 279.5C-34.9292 298.502 -19.0968 313.535 -0.138954 313.077C4.34237 312.969 8.75385 311.982 12.8465 310.173L33.5326 339.573C20.4704 353.228 20.9925 374.976 34.6967 388.149C37.8724 391.202 41.6003 393.619 45.6777 395.269L34.1669 438.592C27.2895 438.663 20.6056 440.812 14.9888 444.757C-0.666361 455.659 -4.46138 477.27 6.51218 493.026C17.4857 508.782 39.0731 512.716 54.7283 501.814C70.3835 490.912 74.1785 469.301 63.2049 453.545C59.3475 448.006 53.9712 443.703 47.732 441.16L59.2429 397.838C75.3836 397.65 89.1236 386.167 92.1914 370.302L130.586 366.955C131.598 370.54 133.189 373.938 135.295 377.014C146.297 392.615 167.782 396.4 183.283 385.468C188.874 381.525 193.153 375.99 195.57 369.575L236.886 373.09C237.828 377.773 239.735 382.213 242.487 386.123C253.422 401.947 275.034 405.969 290.758 395.105C306.481 384.242 310.363 362.607 299.427 346.783C288.492 330.959 266.88 326.937 251.157 337.8C243.861 342.841 238.792 350.508 236.995 359.219L197.718 355.917C197.411 345.491 192.222 335.79 183.714 329.735L199.859 294.707C218.609 297.531 236 284.601 238.704 265.827C239.627 259.416 238.721 252.863 236.09 246.924L248.449 238.229C262.314 251.343 284.095 250.774 297.097 236.957C310.099 223.141 309.398 201.309 295.533 188.194C281.667 175.08 259.886 175.649 246.885 189.466ZM144.697 32.2833C154.005 25.7345 166.893 28.0196 173.484 37.3874C180.075 46.7552 177.873 59.6578 168.566 66.2066C159.258 72.7555 146.37 70.4703 139.779 61.1025C133.188 51.7348 135.39 38.8317 144.697 32.2833ZM-104.354 275.14C-113.662 281.689 -126.55 279.404 -133.141 270.036C-139.732 260.668 -137.53 247.766 -128.223 241.217C-118.915 234.668 -106.027 236.953 -99.436 246.321C-92.8448 255.689 -95.0467 268.592 -104.354 275.14ZM46.8136 489.988C37.5061 496.537 24.618 494.252 18.0268 484.884C11.4355 475.516 13.6375 462.613 22.945 456.065C32.2525 449.516 45.1407 451.801 51.7319 461.169C58.3231 470.537 56.1212 483.439 46.8136 489.988ZM258.64 349.399C267.948 342.85 280.836 345.135 287.427 354.503C294.018 363.87 291.816 376.773 282.509 383.322C273.201 389.871 260.313 387.586 253.722 378.218C247.131 368.85 249.333 355.947 258.64 349.399ZM132.98 158.868C142.288 152.319 155.176 154.604 161.767 163.972C168.358 173.34 166.156 186.242 156.849 192.791C147.541 199.34 134.653 197.055 128.062 187.687C121.471 178.319 123.673 165.416 132.98 158.868ZM32.1057 170.673C41.4132 164.125 54.3014 166.41 60.8926 175.778C67.4838 185.145 65.2818 198.048 55.9743 204.597C46.6668 211.146 33.7787 208.86 27.1874 199.493C20.5962 190.125 22.7989 177.222 32.1057 170.673ZM-17.9936 290.453C-24.5849 281.085 -22.3829 268.182 -13.0754 261.633C-3.76785 255.085 9.12028 257.37 15.7115 266.738C22.3027 276.105 20.1008 289.008 10.7932 295.557C1.4857 302.106 -11.4024 299.82 -17.9936 290.453ZM70.4648 380.365C61.1572 386.914 48.2691 384.629 41.6779 375.261C35.0867 365.893 37.2886 352.991 46.5962 346.442C55.9037 339.893 68.7918 342.178 75.383 351.546C81.9743 360.914 79.7723 373.816 70.4648 380.365ZM175.317 374.213C166.01 380.762 153.122 378.477 146.531 369.109C139.939 359.741 142.141 346.839 151.449 340.29C160.756 333.741 173.644 336.026 180.236 345.394C186.827 354.762 184.625 367.664 175.317 374.213ZM176.498 280.4C179.227 284.272 182.724 287.539 186.769 289.996L171.186 323.867C152.966 319.29 134.583 330.36 130.126 348.593C129.752 350.125 129.484 351.682 129.326 353.252L92.177 356.483C88.3002 337.854 70.1067 325.809 51.5402 329.582C49.2219 330.053 46.9604 330.763 44.7915 331.702L24.0576 302.234C36.9847 288.628 36.3962 267.03 22.7419 253.992C22.3742 253.641 21.9989 253.299 21.6162 252.964L36.3024 221.042C54.5364 225.579 72.8981 214.465 77.3146 196.218C77.6848 194.69 77.9478 193.138 78.1026 191.572L113.08 188.524C114.049 191.018 115.307 193.39 116.827 195.592C126.292 209.009 143.818 213.976 158.79 207.486L179.476 236.886C168.311 248.787 167.067 266.961 176.498 280.4ZM216.52 277.599C207.213 284.148 194.325 281.863 187.733 272.495C181.142 263.128 183.344 250.225 192.652 243.676C201.959 237.127 214.847 239.412 221.439 248.78C228.03 258.148 225.828 271.051 216.52 277.599ZM283.931 230.169C274.623 236.718 261.735 234.433 255.144 225.065C248.553 215.697 250.755 202.795 260.062 196.246C269.37 189.697 282.258 191.982 288.849 201.35C295.44 210.718 293.238 223.62 283.931 230.169Z" fill="#008FBC"/>
</g>
</svg>
