<svg width="23" height="23" viewBox="0 0 23 23" fill="none" xmlns="http://www.w3.org/2000/svg">
<rect x="1.25" y="1.25" width="20.5" height="20.5" rx="2.75" fill="white" stroke="#008FBC" stroke-width="1.5"/>
<path d="M11.3586 9.5201L11.5 9.66152L11.6414 9.5201L15.0808 6.08076C15.5884 5.57308 16.4116 5.57308 16.9192 6.08076C17.4269 6.58844 17.4269 7.41156 16.9192 7.91924L13.4799 11.3586L13.3385 11.5L13.4799 11.6414L16.9192 15.0808C17.4269 15.5884 17.4269 16.4116 16.9192 16.9192C16.4116 17.4269 15.5884 17.4269 15.0808 16.9192L11.6414 13.4799L11.5 13.3385L11.3586 13.4799L7.91924 16.9192C7.41156 17.4269 6.58844 17.4269 6.08076 16.9192C5.57308 16.4116 5.57308 15.5884 6.08076 15.0808L9.5201 11.6414L9.66152 11.5L9.5201 11.3586L6.08076 7.91924C5.57308 7.41156 5.57308 6.58844 6.08076 6.08076C6.58844 5.57308 7.41156 5.57308 7.91924 6.08076L11.3586 9.5201Z" fill="#008FBC" stroke="white" stroke-width="0.4" stroke-linecap="round"/>
</svg>
