<svg width="30" height="30" viewBox="0 0 30 30" fill="none" xmlns="http://www.w3.org/2000/svg">
<path d="M28.9932 6.14881L26.8903 6.14871V3.97184C26.8903 3.47346 26.5257 3.05003 26.0327 2.97629C25.9467 2.96336 23.898 2.66579 21.431 3.11467C18.6808 3.61508 16.4875 4.84911 14.9999 6.71466C13.5123 4.84911 11.319 3.61508 8.56886 3.11467C6.1018 2.66589 4.05312 2.96336 3.96716 2.97629C3.47423 3.05013 3.10959 3.47356 3.10959 3.97184V6.14871H1.00666C0.450807 6.14871 0 6.59951 0 7.15547V26.1256C0 26.4516 0.157777 26.7573 0.423534 26.9462C0.689291 27.1351 1.03 27.1836 1.33777 27.0763C1.41333 27.0502 8.95704 24.4756 14.5822 27.0415C14.8476 27.1626 15.1524 27.1626 15.4178 27.0415C21.0272 24.4829 28.5871 27.0504 28.6622 27.0763C28.7701 27.1139 28.8818 27.1324 28.9931 27.1324C29.1995 27.1324 29.4037 27.069 29.5765 26.9463C29.8422 26.7574 30 26.4517 30 26.1257V7.15557C29.9999 6.59961 29.5492 6.14881 28.9932 6.14881ZM2.01343 24.7787V8.16213H3.10959V21.5688C3.10959 21.8613 3.23756 22.1391 3.45888 22.3303C3.68019 22.5215 3.97453 22.6072 4.26382 22.5645C4.31938 22.5564 8.6927 21.956 11.8878 24.1483C7.95199 23.4752 4.01281 24.2537 2.01343 24.7787ZM13.9933 23.2404C12.586 21.9689 10.753 21.1091 8.56886 20.7117C7.51775 20.5204 6.5426 20.4646 5.76281 20.4646C5.53129 20.4646 5.31695 20.4696 5.12311 20.4774V4.89628H5.12301C7.05785 4.80901 11.7646 5.01588 13.9933 8.79395V23.2404ZM16.0066 8.79405C18.2273 5.03214 22.9414 4.81588 24.8769 4.89881V20.4774C24.0301 20.4432 22.7941 20.4636 21.431 20.7117C19.2469 21.1091 17.4139 21.9688 16.0066 23.2404V8.79405ZM18.1087 24.1489C21.3043 21.9553 25.6799 22.5563 25.7345 22.5644C26.0245 22.608 26.3186 22.5227 26.5406 22.3316C26.7626 22.1403 26.8903 21.8619 26.8903 21.5688V8.16224H27.9865V24.7787C25.9865 24.2535 22.0457 23.4747 18.1087 24.1489Z" fill="#008FBC"/>
</svg>
