<svg width="21" height="21" viewBox="0 0 21 21" fill="none" xmlns="http://www.w3.org/2000/svg">
<path d="M10.346 2.7083H3.33647C2.97751 2.7083 2.68266 3.00508 2.68266 3.37495L2.68266 17.625C2.68266 17.9949 2.97754 18.2916 3.33647 18.2916H10.346C10.8476 18.2916 11.2498 18.7034 11.2498 19.2083C11.2498 19.7131 10.8476 20.125 10.346 20.125H3.33647C1.97734 20.125 0.875 19.0015 0.875 17.625L0.875 3.37499C0.875 1.99847 1.97734 0.875 3.33647 0.875H10.346C10.8476 0.875 11.2498 1.28676 11.2498 1.79165C11.2498 2.29654 10.8476 2.7083 10.346 2.7083Z" fill="#008FBC" stroke="#008FBC" stroke-width="0.25"/>
<mask id="path-2-outside-1" maskUnits="userSpaceOnUse" x="6" y="4.2915" width="15" height="13" fill="black">
<rect fill="white" x="6" y="4.2915" width="15" height="13"/>
<path d="M19.522 11.0636L14.7867 15.8136C14.4814 16.1208 13.9876 16.1168 13.6854 15.8057C13.3832 15.4945 13.3863 14.9934 13.6932 14.6862L17.0772 11.2916H8.00932C7.57863 11.2916 7.23051 10.9377 7.23051 10.4999C7.23051 10.0622 7.57863 9.70826 8.00932 9.70826H17.0772L13.6932 6.31361C13.3864 6.00643 13.384 5.50531 13.6854 5.19419C13.8381 5.03744 14.039 4.95828 14.24 4.95828C14.4378 4.95828 14.6356 5.03428 14.7867 5.1863L19.522 9.93631C19.67 10.0851 19.7541 10.2878 19.7541 10.5C19.7541 10.7121 19.6707 10.9139 19.522 11.0636Z"/>
<path fill-rule="evenodd" clip-rule="evenodd" d="M19.695 11.2413C19.8901 11.045 20 10.7793 20 10.5C20 10.2204 19.8892 9.95393 19.6949 9.75859L14.9597 5.00862C14.9596 5.00853 14.9598 5.00871 14.9597 5.00862C14.7606 4.80839 14.4995 4.70828 14.24 4.70828C13.9755 4.70828 13.7109 4.81262 13.5106 5.01833C13.1144 5.42738 13.1166 6.08724 13.5207 6.49173L16.4779 9.45826H8.00932C7.44278 9.45826 6.98456 9.9241 6.98456 10.4999C6.98456 11.0758 7.4428 11.5416 8.00932 11.5416H16.4779L13.5207 14.5081C13.117 14.9123 13.1128 15.572 13.5104 15.9813C13.9076 16.3902 14.5572 16.3962 14.9597 15.9913L19.695 11.2413ZM14.7867 15.8136C14.4814 16.1208 13.9876 16.1168 13.6854 15.8057C13.3832 15.4945 13.3863 14.9934 13.6932 14.6862L17.0772 11.2916H8.00932C7.57863 11.2916 7.23051 10.9377 7.23051 10.4999C7.23051 10.0622 7.57863 9.70826 8.00932 9.70826H17.0772L13.6932 6.31361C13.3864 6.00643 13.384 5.50531 13.6854 5.19419C13.8381 5.03744 14.039 4.95828 14.24 4.95828C14.4378 4.95828 14.6356 5.03428 14.7867 5.1863L19.522 9.93631C19.67 10.0851 19.7541 10.2878 19.7541 10.5C19.7541 10.7121 19.6707 10.9139 19.522 11.0636L14.7867 15.8136Z"/>
</mask>
<path d="M19.522 11.0636L14.7867 15.8136C14.4814 16.1208 13.9876 16.1168 13.6854 15.8057C13.3832 15.4945 13.3863 14.9934 13.6932 14.6862L17.0772 11.2916H8.00932C7.57863 11.2916 7.23051 10.9377 7.23051 10.4999C7.23051 10.0622 7.57863 9.70826 8.00932 9.70826H17.0772L13.6932 6.31361C13.3864 6.00643 13.384 5.50531 13.6854 5.19419C13.8381 5.03744 14.039 4.95828 14.24 4.95828C14.4378 4.95828 14.6356 5.03428 14.7867 5.1863L19.522 9.93631C19.67 10.0851 19.7541 10.2878 19.7541 10.5C19.7541 10.7121 19.6707 10.9139 19.522 11.0636Z" fill="#008FBC"/>
<path fill-rule="evenodd" clip-rule="evenodd" d="M19.695 11.2413C19.8901 11.045 20 10.7793 20 10.5C20 10.2204 19.8892 9.95393 19.6949 9.75859L14.9597 5.00862C14.9596 5.00853 14.9598 5.00871 14.9597 5.00862C14.7606 4.80839 14.4995 4.70828 14.24 4.70828C13.9755 4.70828 13.7109 4.81262 13.5106 5.01833C13.1144 5.42738 13.1166 6.08724 13.5207 6.49173L16.4779 9.45826H8.00932C7.44278 9.45826 6.98456 9.9241 6.98456 10.4999C6.98456 11.0758 7.4428 11.5416 8.00932 11.5416H16.4779L13.5207 14.5081C13.117 14.9123 13.1128 15.572 13.5104 15.9813C13.9076 16.3902 14.5572 16.3962 14.9597 15.9913L19.695 11.2413ZM14.7867 15.8136C14.4814 16.1208 13.9876 16.1168 13.6854 15.8057C13.3832 15.4945 13.3863 14.9934 13.6932 14.6862L17.0772 11.2916H8.00932C7.57863 11.2916 7.23051 10.9377 7.23051 10.4999C7.23051 10.0622 7.57863 9.70826 8.00932 9.70826H17.0772L13.6932 6.31361C13.3864 6.00643 13.384 5.50531 13.6854 5.19419C13.8381 5.03744 14.039 4.95828 14.24 4.95828C14.4378 4.95828 14.6356 5.03428 14.7867 5.1863L19.522 9.93631C19.67 10.0851 19.7541 10.2878 19.7541 10.5C19.7541 10.7121 19.6707 10.9139 19.522 11.0636L14.7867 15.8136Z" fill="#008FBC"/>
<path d="M19.522 11.0636L19.6105 11.1518L19.6106 11.1517L19.522 11.0636ZM14.7867 15.8136L14.6982 15.7253L14.698 15.7255L14.7867 15.8136ZM13.6854 15.8057L13.5958 15.8927V15.8927L13.6854 15.8057ZM13.6932 14.6862L13.7817 14.7746L13.7818 14.7745L13.6932 14.6862ZM17.0772 11.2916L17.1658 11.3798L17.3783 11.1666H17.0772V11.2916ZM17.0772 9.70826V9.83326H17.3783L17.1658 9.62001L17.0772 9.70826ZM13.6932 6.31361L13.7818 6.22536L13.7817 6.22527L13.6932 6.31361ZM13.6854 5.19419L13.5959 5.10699L13.5956 5.10722L13.6854 5.19419ZM14.7867 5.1863L14.698 5.27442L14.6982 5.27455L14.7867 5.1863ZM19.522 9.93631L19.6106 9.84817L19.6105 9.84806L19.522 9.93631ZM19.4334 10.9753L14.6982 15.7253L14.8752 15.9018L19.6105 11.1518L19.4334 10.9753ZM14.698 15.7255C14.4423 15.9828 14.0289 15.9798 13.7751 15.7186L13.5958 15.8927C13.9464 16.2537 14.5205 16.2587 14.8753 15.9017L14.698 15.7255ZM13.7751 15.7186C13.5204 15.4564 13.5231 15.0334 13.7817 14.7746L13.6048 14.5979C13.2496 14.9534 13.246 15.5327 13.5958 15.8927L13.7751 15.7186ZM13.7818 14.7745L17.1658 11.3798L16.9887 11.2033L13.6047 14.598L13.7818 14.7745ZM17.0772 11.1666H8.00932V11.4166H17.0772V11.1666ZM8.00932 11.1666C7.64958 11.1666 7.35551 10.8706 7.35551 10.4999H7.10551C7.10551 11.0048 7.50768 11.4166 8.00932 11.4166V11.1666ZM7.35551 10.4999C7.35551 10.1293 7.64959 9.83326 8.00932 9.83326V9.58326C7.50767 9.58326 7.10551 9.99506 7.10551 10.4999H7.35551ZM8.00932 9.83326H17.0772V9.58326H8.00932V9.83326ZM17.1658 9.62001L13.7818 6.22536L13.6047 6.40186L16.9887 9.79651L17.1658 9.62001ZM13.7817 6.22527C13.5233 5.9666 13.5211 5.54351 13.7752 5.28117L13.5956 5.10722C13.247 5.46711 13.2495 6.04626 13.6048 6.40195L13.7817 6.22527ZM13.775 5.2814C13.9036 5.14936 14.072 5.08328 14.24 5.08328V4.83328C14.0061 4.83328 13.7726 4.92553 13.5959 5.10699L13.775 5.2814ZM14.24 5.08328C14.4057 5.08328 14.5712 5.14684 14.698 5.27442L14.8753 5.09818C14.7 4.92172 14.4699 4.83328 14.24 4.83328V5.08328ZM14.6982 5.27455L19.4334 10.0246L19.6105 9.84806L14.8752 5.09805L14.6982 5.27455ZM19.4333 10.0244C19.558 10.1498 19.6291 10.3209 19.6291 10.5H19.8791C19.8791 10.2548 19.7819 10.0204 19.6106 9.84817L19.4333 10.0244ZM19.6291 10.5C19.6291 10.6791 19.5587 10.8493 19.4333 10.9755L19.6106 11.1517C19.7827 10.9786 19.8791 10.745 19.8791 10.5H19.6291ZM13.6092 14.5964C13.6092 14.5964 13.6092 14.5964 13.6092 14.5964C13.6092 14.5964 13.6091 14.5964 13.6092 14.5964C13.6092 14.5964 13.6092 14.5964 13.6092 14.5964C13.6092 14.5964 13.6092 14.5964 13.6092 14.5964C13.6092 14.5964 13.6092 14.5964 13.6092 14.5964C13.6092 14.5964 13.6092 14.5964 13.6092 14.5964C13.6092 14.5964 13.6092 14.5964 13.6092 14.5964L13.6092 14.5964C13.6092 14.5964 13.6092 14.5964 13.6092 14.5964C13.6092 14.5964 13.6092 14.5964 13.6092 14.5964C13.6092 14.5964 13.6092 14.5964 13.6092 14.5964C13.6092 14.5964 13.6092 14.5964 13.6092 14.5964C13.6092 14.5964 13.6092 14.5964 13.6092 14.5964C13.6092 14.5964 13.6092 14.5964 13.6092 14.5964C13.6092 14.5964 13.6092 14.5964 13.6092 14.5964C13.609 14.4196 13.4322 14.4198 13.4322 14.4198C13.4322 14.4198 13.4322 14.4198 13.4322 14.4198C13.4322 14.4198 13.4322 14.4198 13.4322 14.4198C13.4321 14.4199 13.4323 14.4197 13.4322 14.4198C13.4322 14.4198 13.4322 14.4198 13.4322 14.4198C13.4322 14.4198 13.4322 14.4198 13.4322 14.4198C13.4322 14.4198 13.4322 14.4198 13.4322 14.4198C13.4322 14.4198 13.4322 14.4198 13.4322 14.4198C13.4322 14.4198 13.4322 14.4198 13.4322 14.4198C13.4322 14.4198 13.4322 14.4198 13.4322 14.4198C13.4322 14.4198 13.4322 14.4198 13.4322 14.4198C13.4322 14.4198 13.4322 14.4198 13.4322 14.4198C13.4322 14.4198 13.4322 14.4198 13.4322 14.4198C13.4322 14.4198 13.4322 14.4198 13.4322 14.4198C13.4322 14.4198 13.4322 14.4198 13.4322 14.4198C13.4322 14.4198 13.4322 14.4198 13.4322 14.4198C13.4322 14.4198 13.4322 14.4198 13.4322 14.4198C13.4322 14.4198 13.4322 14.4198 13.4322 14.4198C13.4322 14.4198 13.6089 14.4196 13.6091 14.5964C13.6091 14.5964 13.6091 14.5964 13.6091 14.5964C13.6091 14.5964 13.6091 14.5964 13.6091 14.5964C13.6091 14.5964 13.6091 14.5964 13.6091 14.5964C13.6091 14.5964 13.6091 14.5964 13.6091 14.5964C13.6092 14.5964 13.6091 14.5964 13.6091 14.5964C13.6091 14.5964 13.6092 14.5964 13.6092 14.5964C13.6092 14.5964 13.6091 14.5964 13.6092 14.5964L13.4322 14.4198C13.4322 14.4198 13.4322 14.4198 13.4322 14.4198C13.4322 14.4198 13.4322 14.4198 13.4322 14.4198C13.4322 14.4198 13.4322 14.4198 13.4322 14.4198C13.4322 14.4198 13.4322 14.4198 13.4322 14.4198C13.4322 14.4198 13.4322 14.4198 13.4322 14.4198C13.4322 14.4198 13.4322 14.4198 13.4322 14.4198C13.4322 14.4198 13.4322 14.4198 13.4322 14.4198V14.4198C13.4322 14.4198 13.4322 14.4198 13.4322 14.4198C13.4321 14.4198 13.4322 14.4198 13.4322 14.4198C13.4322 14.4198 13.4322 14.4198 13.4322 14.4198C13.4322 14.4198 13.4322 14.4198 13.4322 14.4198C13.4322 14.4198 13.4322 14.4198 13.4322 14.4198C13.4322 14.4198 13.4322 14.4198 13.4322 14.4198C13.4324 14.5966 13.6091 14.5964 13.6091 14.5964C13.6091 14.5964 13.6091 14.5964 13.6091 14.5964C13.6091 14.5964 13.6091 14.5964 13.6091 14.5964C13.6093 14.5963 13.609 14.5965 13.6092 14.5964C13.6092 14.5964 13.6092 14.5964 13.6092 14.5964C13.6092 14.5964 13.6092 14.5964 13.6092 14.5964C13.6092 14.5964 13.6092 14.5964 13.6092 14.5964C13.6092 14.5964 13.6092 14.5964 13.6092 14.5964C13.6092 14.5964 13.6092 14.5964 13.6092 14.5964C13.6092 14.5964 13.6092 14.5964 13.6092 14.5964C13.6092 14.5964 13.6092 14.5964 13.6092 14.5964C13.6092 14.5964 13.6092 14.5964 13.6092 14.5964C13.6092 14.5964 13.6092 14.5964 13.6092 14.5964C13.6092 14.5964 13.6092 14.5964 13.6092 14.5964C13.6092 14.5964 13.6092 14.5964 13.6092 14.5964C13.6092 14.5964 13.6092 14.5964 13.6092 14.5964C13.6092 14.5964 13.6092 14.5964 13.6092 14.5964C13.6092 14.5964 13.6092 14.5964 13.6092 14.5964C13.6092 14.5964 13.6092 14.5964 13.6092 14.5964C13.6092 14.5964 13.6092 14.5964 13.6092 14.5964C13.6092 14.5964 13.6092 14.5964 13.6092 14.5964C13.6092 14.5964 13.4324 14.5966 13.4322 14.4198C13.4322 14.4198 13.4322 14.4198 13.4322 14.4198C13.4322 14.4198 13.4322 14.4198 13.4322 14.4198C13.4322 14.4198 13.4322 14.4198 13.4322 14.4198C13.4321 14.4199 13.4322 14.4198 13.4322 14.4198C13.4322 14.4198 13.4322 14.4198 13.4322 14.4198C13.4322 14.4198 13.4322 14.4198 13.4322 14.4198L13.6092 14.5964ZM19.695 11.2413L19.872 11.4178L19.8723 11.4175L19.695 11.2413ZM19.6949 9.75859L19.8722 9.58231L19.872 9.58209L19.6949 9.75859ZM13.5106 5.01833L13.3315 4.84392L13.3311 4.84438L13.5106 5.01833ZM13.5207 6.49173L13.6977 6.31523L13.6975 6.31505L13.5207 6.49173ZM16.4779 9.45826V9.70826H17.0801L16.6549 9.28176L16.4779 9.45826ZM16.4779 11.5416L16.6549 11.7181L17.0801 11.2916H16.4779V11.5416ZM13.5207 14.5081L13.6976 14.6848L13.6977 14.6846L13.5207 14.5081ZM13.5104 15.9813L13.6897 15.8071V15.8071L13.5104 15.9813ZM14.9597 15.9913L14.7827 15.8148L14.7824 15.815L14.9597 15.9913ZM19.75 10.5C19.75 10.7134 19.6661 10.9157 19.5177 11.065L19.8723 11.4175C20.114 11.1743 20.25 10.8452 20.25 10.5H19.75ZM19.5177 9.93487C19.6653 10.0834 19.75 10.2865 19.75 10.5H20.25C20.25 10.1544 20.113 9.82449 19.8722 9.58231L19.5177 9.93487ZM14.7827 5.18512L19.5179 9.93509L19.872 9.58209L15.1368 4.83212L14.7827 5.18512ZM14.782 5.18442C14.782 5.18446 14.7819 5.1844 14.782 5.18444C14.782 5.18444 14.782 5.18444 14.782 5.18445C14.782 5.18445 14.782 5.18445 14.782 5.18445C14.782 5.18445 14.782 5.18445 14.782 5.18445C14.782 5.18445 14.782 5.18445 14.782 5.18445C14.782 5.18445 14.782 5.18445 14.782 5.18445C14.782 5.18445 14.782 5.18445 14.782 5.18445H14.782C15.1355 5.18639 15.1375 4.83284 15.1375 4.83284C15.1375 4.83284 15.1375 4.83284 15.1375 4.83284C15.1375 4.83284 15.1375 4.83284 15.1375 4.83283C15.1375 4.83283 15.1375 4.83284 15.1375 4.83283C15.1375 4.83283 15.1375 4.83284 15.1375 4.83283C15.1375 4.83283 15.1375 4.83283 15.1375 4.83283C15.1375 4.83283 15.1375 4.83282 15.1375 4.83282L15.1375 4.83282L15.1375 4.83282C15.1374 4.83282 15.1375 4.83282 15.1375 4.83282C15.1374 4.83282 15.1375 4.83282 15.1374 4.83282C15.1374 4.8328 15.1374 4.83282 15.1374 4.8328C15.1374 4.8328 15.1374 4.8328 15.1374 4.83279C15.1374 4.83279 15.1374 4.83279 15.1374 4.83279C15.1374 4.83279 15.1355 5.18634 14.7819 5.1844C14.7819 5.1844 14.7819 5.1844 14.7819 5.1844C14.7819 5.1844 14.7819 5.1844 14.7819 5.1844C14.782 5.18442 14.7819 5.1844 14.782 5.18442L15.1374 4.83282C15.1374 4.83278 15.1375 4.83284 15.1374 4.8328C15.1374 4.8328 15.1374 4.8328 15.1374 4.8328C15.1374 4.8328 15.1374 4.8328 15.1374 4.8328C15.1374 4.83279 15.1374 4.8328 15.1374 4.83279H15.1374C15.1374 4.83279 15.1374 4.8328 15.1374 4.83279C15.1374 4.83279 15.1374 4.83279 15.1374 4.83279C14.7839 4.83085 14.7819 5.1844 14.7819 5.1844C14.7819 5.1844 14.7819 5.1844 14.7819 5.1844C14.7819 5.1844 14.7819 5.1844 14.7819 5.1844C14.7819 5.18441 14.7819 5.1844 14.7819 5.18441C14.7819 5.18441 14.7819 5.18441 14.7819 5.18441C14.782 5.18442 14.7819 5.18441 14.7819 5.18441C14.782 5.18442 14.7819 5.18441 14.782 5.18442C14.782 5.18442 14.782 5.18442 14.782 5.18442C14.782 5.18442 14.782 5.18442 14.782 5.18442C14.782 5.18442 14.782 5.18442 14.782 5.18442C14.782 5.18442 14.782 5.18442 14.782 5.18442C14.782 5.18442 14.782 5.18442 14.782 5.18442C14.782 5.18444 14.782 5.18442 14.782 5.18444C14.782 5.18444 14.782 5.18445 14.782 5.18445C14.782 5.18445 14.782 5.18445 14.782 5.18445C14.782 5.18445 14.7839 4.8309 15.1375 4.83284C15.1375 4.83284 15.1375 4.83285 15.1375 4.83284C15.1375 4.83284 15.1375 4.83284 15.1375 4.83284C15.1375 4.83282 15.1375 4.83284 15.1374 4.83282L14.782 5.18442ZM14.24 4.95828C14.4353 4.95828 14.6318 5.03349 14.7825 5.18492L15.137 4.83232C14.8893 4.58329 14.5638 4.45828 14.24 4.45828V4.95828ZM13.6897 5.19274C13.8419 5.03648 14.0413 4.95828 14.24 4.95828V4.45828C13.9096 4.45828 13.58 4.58877 13.3315 4.84392L13.6897 5.19274ZM13.6975 6.31505C13.3906 6.00775 13.3883 5.50396 13.6902 5.19227L13.3311 4.84438C12.8405 5.35081 12.8426 6.16674 13.3438 6.66841L13.6975 6.31505ZM16.6549 9.28176L13.6977 6.31523L13.3436 6.66823L16.3008 9.63476L16.6549 9.28176ZM8.00932 9.70826H16.4779V9.20826H8.00932V9.70826ZM7.23456 10.4999C7.23456 10.0583 7.58471 9.70826 8.00932 9.70826V9.20826C7.30086 9.20826 6.73456 9.78992 6.73456 10.4999H7.23456ZM8.00932 11.2916C7.58471 11.2916 7.23456 10.9416 7.23456 10.4999H6.73456C6.73456 11.21 7.30089 11.7916 8.00932 11.7916V11.2916ZM16.4779 11.2916H8.00932V11.7916H16.4779V11.2916ZM13.6977 14.6846L16.6549 11.7181L16.3008 11.3651L13.3436 14.3316L13.6977 14.6846ZM13.6897 15.8071C13.3873 15.4957 13.3905 14.9923 13.6976 14.6848L13.3438 14.3315C12.8436 14.8324 12.8384 15.6482 13.3311 16.1555L13.6897 15.8071ZM14.7824 15.815C14.4791 16.1202 13.9901 16.1164 13.6897 15.8071L13.3311 16.1555C13.8251 16.6641 14.6354 16.6722 15.137 16.1675L14.7824 15.815ZM19.5179 11.0648L14.7827 15.8148L15.1368 16.1678L19.872 11.4178L19.5179 11.0648Z" fill="#008FBC" mask="url(#path-2-outside-1)"/>
</svg>
