<svg width="82" height="82" viewBox="0 0 82 82" fill="none" xmlns="http://www.w3.org/2000/svg">
    <circle cx="41" cy="41" r="39.75" fill="white" stroke="#008FBC" stroke-width="1.5"/>
    <path d="M59.3105 41.4776C57.8097 41.7859 56.6369 42.9663 56.3306 44.4767H54.6492C54.34 42.9673 53.1682 41.7879 51.6685 41.4768V37.4769C53.7362 37.0511 55.0694 35.0189 54.6464 32.9379C54.5464 32.4458 54.3516 31.9783 54.0729 31.5616L58.521 26.4455C60.4673 27.3379 62.7638 26.4734 63.6506 24.5145C64.5373 22.5556 63.6783 20.2442 61.7319 19.3517C59.7856 18.4592 57.4891 19.3238 56.6024 21.2827C55.9567 22.709 56.2227 24.3856 57.2775 25.5386L52.9762 30.4862C51.2907 29.3743 49.035 29.7877 47.8472 31.4262L44.5814 29.5285C44.7153 29.1408 44.7857 28.7337 44.7901 28.3232C44.7901 26.1991 43.0792 24.4771 40.9687 24.4771C38.8583 24.4771 37.1474 26.1991 37.1474 28.3232C37.1525 28.7363 37.2245 29.1458 37.3606 29.5355L34.0972 31.4324C32.901 29.7777 30.6209 29.3673 28.9292 30.5024L25.0467 26.5948C26.2151 24.8182 25.7312 22.4246 23.966 21.2488C22.2009 20.0729 19.8228 20.5598 18.6545 22.3364C17.4861 24.113 17.97 26.5065 19.7351 27.6823C21.0177 28.5367 22.6835 28.5367 23.966 27.6823L27.8485 31.59C26.6839 33.3558 27.1621 35.7375 28.9166 36.9097C29.3313 37.1868 29.796 37.3794 30.2843 37.4768V41.4767C28.2213 41.8829 26.8763 43.8955 27.2799 45.9717C27.3734 46.4529 27.5579 46.9115 27.8233 47.3227L24.002 50.5281C23.3715 50.0942 22.6257 49.8618 21.862 49.8612C19.7393 49.8509 18.0103 51.5745 18 53.7109C17.9898 55.8473 19.7024 57.5876 21.825 57.5978C23.9477 57.6081 25.6768 55.8845 25.687 53.7481C25.6906 52.9971 25.4769 52.2612 25.0719 51.6304L28.8933 48.425C30.3741 49.4414 32.3597 49.2762 33.6547 48.0289L37.3629 50.1827C37.2254 50.5737 37.1526 50.9848 37.1474 51.3996C37.1497 53.5237 38.8624 55.2437 40.9729 55.2414C41.7343 55.2406 42.478 55.0109 43.1087 54.5818L46.6434 57.5472C46.4293 58.0336 46.3185 58.5597 46.3186 59.0918C46.3006 61.2319 48.0098 62.9817 50.1362 62.9999C52.2626 63.018 54.0011 61.2978 54.0191 59.1576C54.0372 57.0175 52.328 55.2677 50.2016 55.2495C49.2149 55.2411 48.2627 55.6142 47.5415 56.2918L44.1787 53.4765C44.8183 52.5081 44.9672 51.2931 44.5807 50.1973L48.2927 48.0435C49.8181 49.501 52.2286 49.4379 53.6767 47.9025C54.1712 47.3782 54.5084 46.7239 54.6492 46.0151H56.3306C56.7526 48.0963 58.7712 49.439 60.839 49.0142C62.9068 48.5894 64.241 46.5578 63.8189 44.4766C63.3968 42.3954 61.3783 41.0527 59.3105 41.4776ZM60.0755 20.6309C61.3418 20.6309 62.3683 21.6641 62.3683 22.9386C62.3683 24.2131 61.3418 25.2462 60.0755 25.2462C58.8092 25.2462 57.7827 24.2131 57.7827 22.9386C57.7827 21.6641 58.8093 20.6309 60.0755 20.6309ZM21.862 26.7847C20.5957 26.7847 19.5692 25.7515 19.5692 24.477C19.5692 23.2025 20.5957 22.1694 21.862 22.1694C23.1283 22.1694 24.1548 23.2025 24.1548 24.477C24.1548 25.7515 23.1283 26.7847 21.862 26.7847ZM21.862 56.0149C20.5957 56.0149 19.5692 54.9817 19.5692 53.7072C19.5692 52.4327 20.5957 51.3996 21.862 51.3996C23.1283 51.3996 24.1548 52.4327 24.1548 53.7072C24.1548 54.9817 23.1283 56.0149 21.862 56.0149ZM50.14 56.7841C51.4063 56.7841 52.4328 57.8173 52.4328 59.0918C52.4328 60.3663 51.4063 61.3994 50.14 61.3994C48.8737 61.3994 47.8472 60.3663 47.8472 59.0918C47.8472 57.8173 48.8738 56.7841 50.14 56.7841ZM50.9043 31.4C52.1706 31.4 53.1971 32.4331 53.1971 33.7076C53.1971 34.9821 52.1706 36.0153 50.9043 36.0153C49.638 36.0153 48.6114 34.9821 48.6114 33.7076C48.6114 32.4331 49.638 31.4 50.9043 31.4ZM40.9687 26.0154C42.235 26.0154 43.2616 27.0486 43.2616 28.3231C43.2616 29.5976 42.235 30.6307 40.9687 30.6307C39.7024 30.6307 38.6759 29.5976 38.6759 28.3231C38.6759 27.0486 39.7025 26.0154 40.9687 26.0154ZM28.7404 33.7076C28.7404 32.4331 29.7669 31.4 31.0332 31.4C32.2995 31.4 33.326 32.4331 33.326 33.7076C33.326 34.9821 32.2995 36.0153 31.0332 36.0153C29.7669 36.0153 28.7404 34.9821 28.7404 33.7076ZM31.0332 47.5535C29.7669 47.5535 28.7404 46.5204 28.7404 45.2459C28.7404 43.9714 29.7669 42.9382 31.0332 42.9382C32.2995 42.9382 33.326 43.9714 33.326 45.2459C33.326 46.5204 32.2995 47.5535 31.0332 47.5535ZM40.9687 53.7072C39.7024 53.7072 38.6759 52.6741 38.6759 51.3996C38.6759 50.1251 39.7024 49.0919 40.9687 49.0919C42.235 49.0919 43.2616 50.1251 43.2616 51.3996C43.2616 52.6741 42.235 53.7072 40.9687 53.7072ZM47.0829 45.2459C47.0833 45.7729 47.1924 46.2941 47.4031 46.7766L43.8164 48.8612C42.4514 47.278 40.0698 47.1084 38.4968 48.4822C38.3646 48.5977 38.2406 48.7222 38.1257 48.855L34.5382 46.7704C35.3782 44.8269 34.4938 42.566 32.5626 41.7205C32.3215 41.615 32.0703 41.5348 31.8128 41.4813V37.4722C33.8603 37.0618 35.1896 35.0586 34.7819 32.9979C34.7709 32.9424 34.7587 32.8872 34.7453 32.8322L38.1257 30.8677C39.4945 32.448 41.877 32.6123 43.4472 31.2347C43.5787 31.1193 43.7021 30.9949 43.8164 30.8623L47.1945 32.8245C47.123 33.1135 47.0856 33.4098 47.0829 33.7076C47.0852 35.5346 48.362 37.1088 50.14 37.4768V41.4767C48.362 41.8448 47.0852 43.419 47.0829 45.2459ZM50.9043 47.5535C49.638 47.5535 48.6114 46.5204 48.6114 45.2459C48.6114 43.9714 49.638 42.9382 50.9043 42.9382C52.1706 42.9382 53.1971 43.9714 53.1971 45.2459C53.1971 46.5204 52.1706 47.5535 50.9043 47.5535ZM60.0755 47.5535C58.8092 47.5535 57.7827 46.5204 57.7827 45.2459C57.7827 43.9714 58.8092 42.9382 60.0755 42.9382C61.3418 42.9382 62.3683 43.9714 62.3683 45.2459C62.3683 46.5204 61.3418 47.5535 60.0755 47.5535Z" fill="#008FBC"/>
</svg>
