<svg width="18" height="18" viewBox="0 0 18 18" fill="none" xmlns="http://www.w3.org/2000/svg">
<path d="M17.5055 15.1202L13.3759 10.9902C12.7605 11.9472 11.9462 12.7611 10.9893 13.3765L15.1193 17.5065C15.7786 18.1657 16.8476 18.1657 17.5055 17.5065C18.1649 16.8484 18.1649 15.7794 17.5055 15.1202Z" fill="#868686"/>
<path d="M13.5006 6.75034C13.5006 3.02256 10.4782 0 6.75034 0C3.02256 0 0 3.02256 0 6.75034C0 10.4781 3.02256 13.5005 6.75034 13.5005C10.4782 13.5005 13.5006 10.4781 13.5006 6.75034ZM6.75034 11.8129C3.95857 11.8129 1.68763 9.54215 1.68763 6.75038C1.68763 3.95861 3.95857 1.68767 6.75034 1.68767C9.54204 1.68767 11.8132 3.95861 11.8132 6.75038C11.8132 9.54215 9.54204 11.8129 6.75034 11.8129Z" fill="#868686"/>
</svg>
