<svg width="556" height="59" viewBox="0 0 556 59" fill="none" xmlns="http://www.w3.org/2000/svg">
<path opacity="0.2" d="M2 0.00984883C0.89543 0.00984895 0 0.905279 0 2.00985C0 3.11442 0.895431 4.00985 2 4.00985L2 0.00984883ZM509.772 52.6525C509.58 53.7403 510.306 54.7777 511.394 54.9696L529.12 58.0972C530.208 58.2891 531.245 57.5629 531.437 56.4751C531.629 55.3873 530.903 54.3499 529.815 54.158L514.058 51.3779L516.839 35.6213C517.03 34.5335 516.304 33.4961 515.216 33.3042C514.129 33.1123 513.091 33.8385 512.899 34.9263L509.772 52.6525ZM2 4.00985C3.71197 4.00985 5.41896 4.00983 7.12098 4.00981L7.12091 0.00980556C5.41891 0.00983405 3.71195 0.00984883 2 0.00984883L2 4.00985ZM12.2121 4.00968C15.5963 4.00957 18.9607 4.00941 22.3053 4.00921L22.3051 0.00921214C18.9605 0.00941205 15.5962 0.00957131 12.212 0.00968039L12.2121 4.00968ZM27.3075 4.00888C30.6324 4.00864 33.9377 4.00837 37.2234 4.00807L37.2231 0.00806761C33.9374 0.00836945 30.6321 0.00864422 27.3072 0.00888264L27.3075 4.00888ZM42.1373 4.0076C45.4035 4.00727 48.6501 4.00692 51.8774 4.00656L51.8769 0.00655782C48.6497 0.00692022 45.4031 0.00726926 42.1369 0.00759578L42.1373 4.0076ZM56.7037 4.00601C60.0856 4.00561 63.4461 4.00521 66.7851 4.00481L66.7846 0.00480628C63.4456 0.00520861 60.0852 0.0056119 56.7032 0.00600553L56.7037 4.00601ZM71.861 4.00419C75.2338 4.00379 78.5847 4.00339 81.9136 4.00301L81.9131 0.00301123C78.5842 0.00339162 75.2334 0.0037899 71.8605 0.00419509L71.861 4.00419ZM86.8905 4.00246C90.1975 4.0021 93.4826 4.00176 96.746 4.00146L96.7456 0.0014596C93.4822 0.00176048 90.197 0.0020963 86.89 0.00245571L86.8905 4.00246ZM101.625 4.00104C104.866 4.00077 108.086 4.00055 111.285 4.00038L111.285 0.000380039C108.086 0.000550508 104.866 0.000772953 101.624 0.00103605L101.625 4.00104ZM116.348 4.00015C119.762 4.00003 123.151 3.99998 126.515 4.00001L126.515 6.79493e-06C123.151 -2.02656e-05 119.762 3.37362e-05 116.348 0.000154495L116.348 4.00015ZM131.543 4.00011C134.882 4.00022 138.197 4.00042 141.488 4.00072L141.488 0.000722051C138.198 0.00042069 134.883 0.000221372 131.543 0.000109911L131.543 4.00011ZM146.405 4.00125C149.672 4.00166 152.913 4.00218 156.131 4.00281L156.132 0.00281394C152.914 0.00217509 149.672 0.00165927 146.406 0.00125241L146.405 4.00125ZM160.939 4.00387C164.36 4.00469 167.753 4.00565 171.118 4.00679L171.119 0.00679028C167.754 0.00565493 164.361 0.004686 160.94 0.0038662L160.939 4.00387ZM176.179 4.00863C179.539 4.00995 182.871 4.01144 186.176 4.01313L186.178 0.0131313C182.873 0.0114428 179.541 0.00994933 176.181 0.00863338L176.179 4.00863ZM191.113 4.01581C194.39 4.0177 197.64 4.01979 200.863 4.0221L200.866 0.0221051C197.643 0.019792 194.393 0.0177003 191.115 0.0158124L191.113 4.01581ZM205.676 4.02574C209.077 4.02844 212.447 4.03141 215.786 4.03465L215.79 0.0346521C212.451 0.0314076 209.08 0.028445 205.68 0.0257431L205.676 4.02574ZM220.855 4.03982C224.218 4.04341 227.55 4.04731 230.851 4.05153L230.856 0.0515374C227.555 0.0473146 224.223 0.0434167 220.859 0.0398213L220.855 4.03982ZM235.779 4.05811C239.049 4.06267 242.288 4.06756 245.496 4.0728L245.502 0.0728071C242.294 0.0675598 239.055 0.0626709 235.785 0.0581179L235.779 4.05811ZM250.293 4.08096C253.743 4.08705 257.157 4.09358 260.535 4.10057L260.544 0.10058C257.165 0.0935861 253.75 0.0870569 250.3 0.0809631L250.293 4.08096ZM265.576 4.11141C268.918 4.11887 272.225 4.12682 275.497 4.13527L275.507 0.135278C272.235 0.126829 268.928 0.118886 265.585 0.111421L265.576 4.11141ZM280.378 4.14832C283.636 4.15734 286.858 4.16689 290.044 4.177L290.057 0.17702C286.87 0.166912 283.647 0.15736 280.389 0.148337L280.378 4.14832ZM295.191 4.19392C298.602 4.20553 301.972 4.21781 305.3 4.2308L305.316 0.230833C301.986 0.217838 298.616 0.205553 295.205 0.19394L295.191 4.19392ZM310.262 4.25083C313.55 4.26454 316.798 4.27897 320.005 4.29418L320.024 0.294221C316.816 0.279015 313.568 0.264574 310.279 0.250861L310.262 4.25083ZM324.785 4.31756C328.243 4.335 331.654 4.35338 335.018 4.37274L335.041 0.372806C331.676 0.35344 328.265 0.335057 324.805 0.317607L324.785 4.31756ZM340.043 4.40262C343.37 4.42304 346.65 4.44447 349.883 4.46697L349.91 0.467065C346.676 0.444563 343.396 0.423122 340.068 0.402694L340.043 4.40262ZM354.697 4.50151C358.099 4.52667 361.448 4.55307 364.745 4.58076L364.779 0.580902C361.48 0.553198 358.13 0.52679 354.727 0.501621L354.697 4.50151ZM369.804 4.62465C373.15 4.6546 376.44 4.68597 379.675 4.71881L379.716 0.719017C376.479 0.686158 373.187 0.654776 369.84 0.624806L369.804 4.62465ZM384.488 4.76919C387.901 4.80602 391.251 4.84459 394.541 4.88497L394.59 0.885269C391.298 0.844863 387.946 0.806274 384.531 0.769422L384.488 4.76919ZM399.586 4.94897C402.917 4.99262 406.184 5.03825 409.386 5.08595L409.446 1.08639C406.241 1.03866 402.972 0.992995 399.639 0.949314L399.586 4.94897ZM414.142 5.15905C417.633 5.21442 421.045 5.27239 424.381 5.3331L424.453 1.33376C421.115 1.27299 417.699 1.21497 414.206 1.15955L414.142 5.15905ZM429.339 5.42647C432.627 5.49052 435.837 5.55741 438.971 5.62726L439.06 1.62825C435.922 1.55831 432.708 1.49135 429.417 1.42723L429.339 5.42647ZM444.149 5.74706C447.554 5.82881 450.865 5.91434 454.083 6.00382L454.195 2.00536C450.971 1.91573 447.655 1.83007 444.245 1.74821L444.149 5.74706ZM458.842 6.14103C462.344 6.24573 465.731 6.35549 469.006 6.47056L469.147 2.47303C465.864 2.35769 462.47 2.24771 458.962 2.14282L458.842 6.14103ZM473.896 6.64944C477.33 6.78028 480.633 6.91751 483.81 7.06144L483.991 3.06554C480.804 2.92114 477.491 2.78352 474.048 2.65234L473.896 6.64944ZM488.797 7.29805C492.226 7.46842 495.496 7.6475 498.612 7.8357L498.853 3.84298C495.722 3.65383 492.437 3.47399 488.996 3.30297L488.797 7.29805ZM503.623 8.15512C507.11 8.38976 510.385 8.63744 513.457 8.89886L513.796 4.91326C510.698 4.6496 507.399 4.40016 503.892 4.16414L503.623 8.15512ZM518.34 9.34248C521.92 9.69004 525.185 10.0596 528.151 10.4523L528.676 6.48686C525.656 6.08705 522.345 5.71241 518.726 5.36119L518.34 9.34248ZM532.972 11.1524C536.757 11.7566 539.924 12.4069 542.533 13.1036L543.565 9.23901C540.785 8.49689 537.477 7.82091 533.603 7.2024L532.972 11.1524ZM547.013 14.5541C549.211 15.4351 550.525 16.31 551.245 17.0958C551.899 17.81 552.059 18.4338 551.983 19.0881L555.956 19.5513C556.179 17.6369 555.558 15.8821 554.194 14.3937C552.896 12.9769 550.955 11.8251 548.501 10.8414L547.013 14.5541ZM550.253 22.4235C548.766 24.2806 546.42 26.4018 543.305 28.8204L545.757 31.98C548.945 29.5053 551.59 27.154 553.376 24.9234L550.253 22.4235ZM539.37 31.7497C536.905 33.5231 534.164 35.4029 531.205 37.3997L533.442 40.7154C536.413 38.7109 539.192 36.8051 541.706 34.9969L539.37 31.7497ZM527.12 40.1425C524.476 41.9119 521.699 43.7656 518.836 45.7012L521.076 49.0149C523.929 47.0861 526.695 45.2398 529.345 43.4666L527.12 40.1425ZM514.73 48.4965C513.365 49.4328 511.985 50.3878 510.594 51.3616L512.888 54.6384C514.268 53.6727 515.637 52.725 516.993 51.7948L514.73 48.4965Z" fill="#ffffff"/>
<defs>
<linearGradient id="paint0_linear" x1="554.859" y1="53" x2="44.4513" y2="-120.239" gradientUnits="userSpaceOnUse">
<stop stop-color="white"/>
<stop offset="1" stop-color="white" stop-opacity="0.47"/>
</linearGradient>
</defs>
</svg>
