<svg width="36" height="31" viewBox="0 0 36 31" fill="none" xmlns="http://www.w3.org/2000/svg">
<path d="M31.5 27.0714H32V26.5714V20.8807V20.5213L31.6593 20.4068L23.4254 17.64L23.0848 17.5256L22.8678 17.8118L16.453 26.2693L15.8446 27.0714H16.8514H31.5ZM31.3406 16.677L32 16.8987V16.203V4.42857V3.92857H31.5H4.5H4V4.42857V26.5714V27.0714H4.5H11.2343H11.4825L11.6326 26.8736L20.6455 14.9933C20.6459 14.9927 20.6464 14.9921 20.6469 14.9915C21.0499 14.4709 21.3694 14.1753 21.6514 14.0068C21.9201 13.8461 22.1799 13.7857 22.5 13.7857C22.6938 13.7857 22.9159 13.8314 23.2548 13.94C23.4552 14.0042 23.6712 14.0815 23.9293 14.1739C24.1215 14.2426 24.3369 14.3197 24.5868 14.406L24.5867 14.406L24.5906 14.4073L31.3406 16.677ZM2.25 0.5H33.75C34.7189 0.5 35.5 1.28008 35.5 2.21429V28.7857C35.5 29.7199 34.7189 30.5 33.75 30.5H2.25C1.28107 30.5 0.5 29.7199 0.5 28.7857V2.21429C0.5 1.28008 1.28107 0.5 2.25 0.5ZM15.25 11.0714C15.25 13.2335 13.4666 15 11.25 15C9.03345 15 7.25 13.2335 7.25 11.0714C7.25 8.9094 9.03345 7.14286 11.25 7.14286C13.4666 7.14286 15.25 8.9094 15.25 11.0714Z" fill="#008FBC" stroke="white"/>
</svg>
